<svg width="22" height="22" viewBox="0 0 22 22" fill="none" xmlns="http://www.w3.org/2000/svg">
<g clip-path="url(#clip0_7186_85)">
<path d="M19.2743 3.05233H14.7315L14.3756 2.35546C14.3002 2.20648 14.1841 2.08116 14.0403 1.9936C13.8965 1.90604 13.7308 1.85971 13.5617 1.85983H9.23462C9.06592 1.85919 8.90045 1.90535 8.75716 1.993C8.61388 2.08066 8.49858 2.20628 8.42447 2.35546L8.06861 3.05233H3.52576C3.36511 3.05233 3.21105 3.11515 3.09745 3.22697C2.98386 3.33879 2.92004 3.49045 2.92004 3.64858V4.84108C2.92004 4.99922 2.98386 5.15087 3.09745 5.26269C3.21105 5.37451 3.36511 5.43733 3.52576 5.43733H19.2743C19.435 5.43733 19.589 5.37451 19.7026 5.26269C19.8162 5.15087 19.88 4.99922 19.88 4.84108V3.64858C19.88 3.49045 19.8162 3.33879 19.7026 3.22697C19.589 3.11515 19.435 3.05233 19.2743 3.05233ZM4.93404 19.2629C4.96293 19.717 5.16655 20.1432 5.50344 20.4548C5.84033 20.7663 6.28517 20.9398 6.7474 20.9398H16.0527C16.5149 20.9398 16.9598 20.7663 17.2966 20.4548C17.6335 20.1432 17.8372 19.717 17.866 19.2629L18.6686 6.62983H4.13147L4.93404 19.2629Z" fill="white"/>
</g>
<defs>
<clipPath id="clip0_7186_85">
<rect width="16.96" height="19.08" fill="white" transform="translate(2.92004 1.86)"/>
</clipPath>
</defs>
</svg>
